<svg width="18" height="18" viewBox="0 0 18 18" fill="none" xmlns="http://www.w3.org/2000/svg">
<path d="M0.430664 12.3633V16.2656C0.430664 16.8193 0.799805 17.2148 1.3623 17.2148H5.28223C6.16992 17.2148 6.44238 16.2568 5.84473 15.6592L4.56152 14.376L8.99121 9.94629L13.4209 14.3848L12.1465 15.6592C11.5488 16.2568 11.8213 17.2148 12.709 17.2148H16.6289C17.1826 17.2148 17.5605 16.8193 17.5605 16.2656V12.3633C17.5605 11.4668 16.5938 11.2119 16.0049 11.8008L14.7217 13.084L10.292 8.64551L14.7217 4.21582L16.0049 5.49023C16.5938 6.08789 17.5605 5.82422 17.5605 4.92773V1.02539C17.5605 0.480469 17.1826 0.0849609 16.6289 0.0849609H12.709C11.8213 0.0849609 11.5488 1.03418 12.1465 1.64062L13.4297 2.91504L8.99121 7.35352L4.56152 2.91504L5.84473 1.64062C6.44238 1.03418 6.16992 0.0849609 5.28223 0.0849609H1.3623C0.799805 0.0849609 0.430664 0.480469 0.430664 1.02539V4.92773C0.430664 5.82422 1.38867 6.08789 1.98633 5.49023L3.26953 4.20703L7.69922 8.64551L3.26074 13.084L1.98633 11.8008C1.38867 11.2119 0.430664 11.4668 0.430664 12.3633Z" fill="#1C1C1E"/>
</svg>
