<svg width="16" height="20" viewBox="0 0 16 20" fill="none" xmlns="http://www.w3.org/2000/svg">
<path d="M8.25488 9.09863C8.72949 9.09863 9.10742 8.7207 9.10742 8.2373C9.10742 8 9.01953 7.80664 8.86133 7.64844L6.4707 5.27539C6.92773 5.19629 7.45508 5.15234 8.02637 5.15234C11.4102 5.15234 14.1084 7.85938 14.1084 11.2783C14.1084 14.6709 11.3926 17.3955 8 17.3955C4.61621 17.3955 1.8916 14.6709 1.8916 11.2783C1.8916 10.751 1.54883 10.373 1.03906 10.373C0.511719 10.373 0.142578 10.751 0.142578 11.2783C0.142578 15.6377 3.64941 19.1445 8 19.1445C12.3594 19.1445 15.8574 15.6377 15.8574 11.2783C15.8574 6.91895 12.377 3.43848 8.02637 3.43848C7.61328 3.43848 7.19141 3.47363 6.76953 3.53516L8.87012 1.47852C9.01953 1.31152 9.10742 1.11816 9.10742 0.880859C9.10742 0.397461 8.73828 0.00195312 8.25488 0.00195312C8 0.00195312 7.79785 0.0898438 7.63965 0.265625L4.03613 3.93066C3.85156 4.10645 3.76367 4.33496 3.76367 4.57227C3.76367 4.81836 3.84277 5.0293 4.03613 5.22266L7.64844 8.85254C7.79785 9.01953 8 9.09863 8.25488 9.09863Z" fill="currentColor"/>
</svg>
