<svg width="20" height="19" viewBox="0 0 20 19" fill="none" xmlns="http://www.w3.org/2000/svg">
<path d="M9.99121 18.7422C14.9746 18.7422 19.0879 14.6289 19.0879 9.6543C19.0879 4.67969 14.9658 0.566406 9.98242 0.566406C5.00781 0.566406 0.90332 4.67969 0.90332 9.6543C0.90332 14.6289 5.0166 18.7422 9.99121 18.7422ZM7.12598 12.0537C6.66895 12.0537 6.37012 11.7109 6.37012 11.21V6.97363C6.37012 6.33203 6.73047 6.0332 7.31055 6.0332H11.582C12.083 6.0332 12.4082 6.33203 12.4082 6.79785C12.4082 7.26367 12.083 7.5625 11.5732 7.5625H10.0439L8.80469 7.42188L10.1494 8.64355L13.3311 11.8252C13.498 11.9834 13.5947 12.2031 13.5947 12.4229C13.5947 12.915 13.252 13.2402 12.7861 13.2402C12.5312 13.2402 12.3203 13.1523 12.1445 12.9766L8.98047 9.8125L7.76758 8.47656L7.89062 9.78613V11.2275C7.89062 11.7373 7.5918 12.0537 7.12598 12.0537Z" fill="currentColor"/>
</svg>
