<svg width="20" height="21" viewBox="0 0 20 21" fill="none" xmlns="http://www.w3.org/2000/svg">
<path d="M9.99121 20.751C14.9746 20.751 19.0879 16.6377 19.0879 11.6543C19.0879 7.29492 15.9326 3.60352 11.8105 2.75098V1.45898C11.8105 0.791016 11.3096 0.597656 10.7646 0.993164L7.79395 3.09375C7.3457 3.41895 7.3457 3.91113 7.79395 4.22754L10.7559 6.33691C11.3008 6.73242 11.8105 6.55664 11.8105 5.87109V4.60547C14.957 5.40527 17.2598 8.24414 17.2598 11.6543C17.2598 15.6885 14.0254 18.9316 9.99121 18.9316C5.95703 18.9316 2.71387 15.6885 2.72266 11.6543C2.73145 9.30762 3.83008 7.25977 5.55273 5.93262C5.96582 5.57227 6.09766 5.05371 5.78125 4.62305C5.49121 4.20996 4.91992 4.13965 4.44531 4.52637C2.30957 6.12598 0.90332 8.81543 0.90332 11.6543C0.90332 16.6377 5.0166 20.751 9.99121 20.751ZM12.1182 15.4072C13.5508 15.4072 14.5439 14.0361 14.5439 11.8828C14.5439 9.70312 13.5508 8.33203 12.1182 8.33203C10.6768 8.33203 9.70117 9.65918 9.70117 11.8828C9.70117 14.0889 10.6768 15.4072 12.1182 15.4072ZM7.58301 15.3281C7.97852 15.3281 8.2334 15.0645 8.2334 14.6426V9.21094C8.2334 8.69238 7.94336 8.39355 7.48633 8.39355C7.20508 8.39355 7.00293 8.48145 6.66016 8.73633L5.51758 9.54492C5.28906 9.72949 5.18359 9.90527 5.18359 10.1514C5.18359 10.4678 5.42969 10.7314 5.74609 10.7314C5.93066 10.7314 6.04492 10.6875 6.2207 10.5293L6.95898 9.94043V14.6426C6.95898 15.0557 7.20508 15.3281 7.58301 15.3281ZM12.127 14.2119C11.4238 14.2119 10.9932 13.3506 10.9932 11.8828C10.9932 10.3887 11.415 9.52734 12.127 9.52734C12.8301 9.52734 13.2432 10.3799 13.2432 11.8828C13.2432 13.3506 12.8213 14.2119 12.127 14.2119Z" fill="currentColor"/>
</svg>
