<svg width="20" height="21" viewBox="0 0 20 21" fill="none" xmlns="http://www.w3.org/2000/svg">
<path d="M9.99121 20.751C14.9746 20.751 19.0879 16.6377 19.0879 11.6543C19.0879 8.81543 17.6729 6.12598 15.5459 4.52637C15.0713 4.13965 14.4912 4.20996 14.2012 4.62305C13.8848 5.05371 14.0254 5.57227 14.4297 5.93262C16.1611 7.25977 17.2598 9.30762 17.2686 11.6543C17.2773 15.6885 14.0254 18.9316 9.99121 18.9316C5.95703 18.9316 2.73145 15.6885 2.73145 11.6543C2.73145 8.24414 5.03418 5.40527 8.18066 4.60547V5.87988C8.18066 6.55664 8.68164 6.74121 9.22656 6.3457L12.1973 4.24512C12.6367 3.91992 12.6455 3.42773 12.1973 3.11133L9.23535 1.00195C8.68164 0.606445 8.18066 0.782227 8.18066 1.46777V2.75098C4.0498 3.60352 0.90332 7.29492 0.90332 11.6543C0.90332 16.6377 5.0166 20.751 9.99121 20.751ZM12.1182 15.4072C13.5508 15.4072 14.5439 14.0361 14.5439 11.8828C14.5439 9.70312 13.5508 8.33203 12.1182 8.33203C10.6855 8.33203 9.70117 9.65918 9.70117 11.8828C9.70117 14.0889 10.6855 15.4072 12.1182 15.4072ZM7.60938 15.3281C8.00488 15.3281 8.25977 15.0645 8.25977 14.6426V9.21094C8.25977 8.69238 7.96973 8.39355 7.50391 8.39355C7.23145 8.39355 7.0293 8.48145 6.67773 8.73633L5.54395 9.54492C5.31543 9.72949 5.20996 9.90527 5.20996 10.1514C5.20996 10.4678 5.45605 10.7314 5.76367 10.7314C5.95703 10.7314 6.0625 10.6875 6.24707 10.5293L6.98535 9.94043V14.6426C6.98535 15.0557 7.23145 15.3281 7.60938 15.3281ZM12.127 14.2119C11.4238 14.2119 10.9932 13.3506 10.9932 11.8828C10.9932 10.3887 11.4238 9.52734 12.127 9.52734C12.8301 9.52734 13.252 10.3799 13.252 11.8828C13.252 13.3506 12.8213 14.2119 12.127 14.2119Z" fill="currentColor"/>
</svg>
