<svg width="22" height="17" viewBox="0 0 22 17" fill="none" xmlns="http://www.w3.org/2000/svg">
<path d="M3.46777 16.8633H18.5234C20.4219 16.8633 21.4062 15.8877 21.4062 14.0156V3.31055C21.4062 1.43848 20.4219 0.462891 18.5234 0.462891H3.46777C1.56934 0.462891 0.584961 1.42969 0.584961 3.31055V14.0156C0.584961 15.8877 1.56934 16.8633 3.46777 16.8633ZM3.57324 15.1406C2.75586 15.1406 2.30762 14.7188 2.30762 13.8662V3.45996C2.30762 2.60742 2.75586 2.17676 3.57324 2.17676H18.418C19.2266 2.17676 19.6836 2.60742 19.6836 3.45996V13.8662C19.6836 14.7188 19.2266 15.1406 18.418 15.1406H3.57324ZM11.6855 13.8574H17.7061C18.1982 13.8574 18.4004 13.6553 18.4004 13.1543V9.36621C18.4004 8.86523 18.1982 8.6543 17.7061 8.6543H11.6855C11.1934 8.6543 10.9912 8.86523 10.9912 9.36621V13.1543C10.9912 13.6553 11.1934 13.8574 11.6855 13.8574Z" fill="currentColor"/>
</svg>
