<svg width="24" height="20" viewBox="0 0 24 20" fill="none" xmlns="http://www.w3.org/2000/svg">
<path d="M0.398438 12.0537C0.398438 13.9434 1.38281 14.9189 3.29004 14.9189H3.7207V7.25488C3.7207 4.64453 5.1709 3.20312 7.79883 3.20312H19.0664V3.08887C19.0664 1.20801 18.0732 0.223633 16.1748 0.223633H3.29004C1.38281 0.223633 0.398438 1.20801 0.398438 3.08887V12.0537ZM7.9043 19.1113H20.7012C22.5996 19.1113 23.6016 18.127 23.6016 16.2461V7.36035C23.6016 5.47949 22.5996 4.49512 20.7012 4.49512H7.9043C5.99707 4.49512 5.0127 5.4707 5.0127 7.36035V16.2461C5.0127 18.127 5.99707 19.1113 7.9043 19.1113Z" fill="currentColor"/>
</svg>
