<svg width="12" height="17" viewBox="0 0 12 17" fill="none" xmlns="http://www.w3.org/2000/svg">
<path d="M10.2168 16.5381C10.876 16.5381 11.3594 16.0459 11.3594 15.3955V1.97461C11.3594 1.31543 10.876 0.788086 10.208 0.788086C9.75977 0.788086 9.43457 0.972656 8.95117 1.43848L5.27734 4.875C5.22461 4.92773 5.1543 4.9541 5.0752 4.9541H2.58789C1.2959 4.9541 0.583984 5.6748 0.583984 7.03711V10.3066C0.583984 11.6689 1.2959 12.3896 2.58789 12.3896H5.0752C5.1543 12.3896 5.22461 12.416 5.27734 12.4688L8.95117 15.9316C9.39062 16.3535 9.75977 16.5381 10.2168 16.5381Z" fill="currentColor"/>
</svg>
